<svg id="Laag_1" data-name="Laag 1" xmlns="http://www.w3.org/2000/svg" viewBox="0 0 163.83 241.74"><defs><style>.cls-1{fill:#fff;}</style></defs><title>ordy</title><path class="cls-1" d="M55.63,200.47c0,5.24,11.46,9.6,26.43,10.36,15-.76,26.44-5.12,26.44-10.36L125.74,84.91H38.39Zm44-77.55A18.7,18.7,0,1,1,81,104.21,18.7,18.7,0,0,1,99.66,122.92Z"/><path class="cls-1" d="M41.24,149.72l7,52.67c-4,4-8.47,8.12-13.3,12.23A231.42,231.42,0,0,1,4.06,236.76a372.07,372.07,0,0,1,25.35-83.38Z"/><path class="cls-1" d="M122.89,149.72l11.83,3.66A368.67,368.67,0,0,1,148,188.31a369.12,369.12,0,0,1,12.11,48.45,231.42,231.42,0,0,1-30.91-22.14c-4.83-4.11-9.26-8.21-13.3-12.23Z"/><path class="cls-1" d="M36.18,2.51C36.09,4.28,36,6,35.89,8.41c9.33,0,18.4.4,27.41-.14,5.82-.35,9.19,1.25,10.12,7.19A27.06,27.06,0,0,0,75.08,20C62.15,22.55,50.83,27.9,43.65,39.29c-2.85,4.53-4.4,9.87-6.88,15.64H126a31.5,31.5,0,0,0-7.37-18.16A43.29,43.29,0,0,0,86.34,20.14c-4-.23-5.61-1.7-6.81-5.18C78.07,10.7,76,6.65,74.19,2.51Z"/><path class="cls-1" d="M138.05,78.58V61.39h-112V78.58Z"/></svg>