<svg id="Laag_1" data-name="Laag 1" xmlns="http://www.w3.org/2000/svg" viewBox="0 0 162 240.43"><defs><style>.cls-1{fill:#d32f2f;}.cls-2{fill:#595857;}</style></defs><title>ordy</title><path class="cls-1" d="M55.15,201c0,5.24,11.46,9.6,26.44,10.36,15-.76,26.43-5.12,26.43-10.36L125.26,85.4H37.91Zm44-77.56a18.71,18.71,0,1,1-18.71-18.7A18.71,18.71,0,0,1,99.19,123.4Z"/><path class="cls-2" d="M40.76,150.21l7,52.67c-4,4-8.47,8.12-13.3,12.23A231.07,231.07,0,0,1,3.58,237.24,372.61,372.61,0,0,1,15.69,188.8c4.13-12.78,8.65-24.44,13.24-34.94Z"/><path class="cls-2" d="M122.41,150.21l11.83,3.65a372.64,372.64,0,0,1,13.25,34.94,372.61,372.61,0,0,1,12.11,48.44,231.07,231.07,0,0,1-30.92-22.13c-4.83-4.11-9.26-8.21-13.3-12.23Z"/><path class="cls-1" d="M35.7,3c-.09,1.76-.17,3.53-.29,5.9,9.33,0,18.4.39,27.41-.14C68.64,8.41,72,10,72.94,16a26.64,26.64,0,0,0,1.67,4.56C61.67,23,50.35,28.39,43.17,39.78c-2.85,4.52-4.4,9.87-6.88,15.64h89.27a31.58,31.58,0,0,0-7.38-18.17A43.31,43.31,0,0,0,85.86,20.63c-4-.24-5.61-1.7-6.81-5.18C77.59,11.19,75.52,7.14,73.71,3Z"/><path class="cls-2" d="M137.58,79.07V61.88H25.6V79.07Z"/></svg>