<svg id="Laag_1" data-name="Laag 1" xmlns="http://www.w3.org/2000/svg" viewBox="0 0 305.43 305.43"><defs><style>.cls-1{fill:#d32f2f;}.cls-2,.cls-3{fill:#fff;}.cls-3{font-size:69.91px;font-family:Krungthep;}.cls-4{font-size:18.41px;font-family:Raleway-Light, Raleway;font-weight:300;}.cls-5{letter-spacing:-0.03em;}.cls-6{letter-spacing:-0.02em;}.cls-7{letter-spacing:-0.03em;}</style></defs><title>ordy</title><rect class="cls-1" width="305.43" height="305.43"/><path class="cls-2" d="M137,149.83c0,3.25,7.13,6,16.44,6.44,9.31-.48,16.43-3.19,16.43-6.44L180.55,78h-54.3Zm27.38-48.21A11.63,11.63,0,1,1,152.71,90,11.63,11.63,0,0,1,164.34,101.62Z"/><path class="cls-2" d="M128,118.28,132.39,151c-2.5,2.5-5.26,5-8.26,7.6a143.19,143.19,0,0,1-19.22,13.76,231.76,231.76,0,0,1,15.76-51.83Z"/><path class="cls-2" d="M178.78,118.28l7.35,2.27a229.26,229.26,0,0,1,8.23,21.72,229.49,229.49,0,0,1,7.53,30.11,143.83,143.83,0,0,1-19.22-13.76c-3-2.55-5.75-5.1-8.26-7.6Z"/><path class="cls-2" d="M124.87,26.77l-.17,3.67c5.8,0,11.43.25,17-.09,3.62-.21,5.72.78,6.3,4.47a15.65,15.65,0,0,0,1,2.84c-8,1.57-15.08,4.9-19.54,12-1.77,2.81-2.73,6.13-4.28,9.72h55.49a19.55,19.55,0,0,0-4.58-11.29,26.9,26.9,0,0,0-20.09-10.34c-2.49-.14-3.49-1-4.24-3.22-.91-2.65-2.19-5.16-3.32-7.74Z"/><path class="cls-2" d="M188.2,74.06V63.38H118.6V74.06Z"/><text class="cls-3" transform="translate(60.23 247.85)">ORDY<tspan class="cls-4"><tspan x="-9.74" y="26">O</tspan><tspan class="cls-5" x="4.13" y="26">r</tspan><tspan x="9.93" y="26">de</tspan><tspan class="cls-6" x="31.99" y="26">r</tspan><tspan x="37.83" y="26" xml:space="preserve"> in g</tspan><tspan class="cls-5" x="72.98" y="26">r</tspan><tspan x="78.78" y="26">oup</tspan><tspan class="cls-7" x="111.76" y="26"> </tspan><tspan x="116" y="26">with style</tspan></tspan></text></svg>