<svg id="Laag_1" data-name="Laag 1" xmlns="http://www.w3.org/2000/svg" viewBox="0 0 305.87 305.87"><defs><style>.cls-1{fill:#d32f2f;}.cls-2{fill:#fff;}</style></defs><title>ordy</title><rect class="cls-1" width="305.87" height="305.87"/><path class="cls-2" d="M126.49,238.68c0,5.24,11.47,9.6,26.44,10.36,15-.76,26.44-5.12,26.44-10.36L196.6,123.12H109.26Zm44-77.55a18.7,18.7,0,1,1-18.7-18.71A18.7,18.7,0,0,1,170.53,161.13Z"/><path class="cls-2" d="M112.11,187.93l7,52.67c-4,4-8.47,8.12-13.3,12.23A231.42,231.42,0,0,1,74.93,275a372.07,372.07,0,0,1,25.35-83.38Z"/><path class="cls-2" d="M193.76,187.93l11.83,3.66a368.67,368.67,0,0,1,13.24,34.93A370.72,370.72,0,0,1,230.94,275,231.42,231.42,0,0,1,200,252.83c-4.83-4.11-9.27-8.21-13.3-12.23Z"/><path class="cls-2" d="M107,40.72c-.08,1.77-.17,3.53-.28,5.9,9.33,0,18.4.4,27.41-.14,5.82-.35,9.19,1.25,10.12,7.19A27.06,27.06,0,0,0,146,58.23C133,60.76,121.7,66.11,114.52,77.5c-2.85,4.53-4.4,9.87-6.88,15.64H196.9A31.54,31.54,0,0,0,189.53,75a43.29,43.29,0,0,0-32.32-16.63c-4-.24-5.61-1.7-6.81-5.18-1.47-4.26-3.54-8.31-5.34-12.45Z"/><path class="cls-2" d="M208.92,116.79V99.6H97v17.19Z"/></svg>