<svg id="Laag_1" data-name="Laag 1" xmlns="http://www.w3.org/2000/svg" viewBox="0 0 211.65 260.33"><defs><style>.cls-1{fill:#d32f2f;}.cls-2,.cls-3{fill:#595857;}.cls-3{font-size:69.91px;font-family:Krungthep;}.cls-4{font-size:18.41px;font-family:Raleway-Light, Raleway;font-weight:300;}.cls-5{letter-spacing:-0.03em;}.cls-6{letter-spacing:-0.02em;}.cls-7{letter-spacing:-0.03em;}</style></defs><title>logo_color_slogan</title><path class="cls-1" d="M89,127.33c0,3.26,7.13,6,16.44,6.44,9.3-.47,16.43-3.18,16.43-6.44L132.61,55.5H78.32Zm27.38-48.21A11.63,11.63,0,1,1,104.78,67.5,11.63,11.63,0,0,1,116.41,79.12Z"/><path class="cls-2" d="M80.09,95.79l4.37,32.74q-3.76,3.75-8.27,7.6A144,144,0,0,1,57,149.89,231.76,231.76,0,0,1,72.74,98.06Z"/><path class="cls-2" d="M130.84,95.79l7.36,2.27a228.22,228.22,0,0,1,8.23,21.72A232.32,232.32,0,0,1,154,149.89a143.45,143.45,0,0,1-19.22-13.76q-4.5-3.84-8.27-7.6Z"/><path class="cls-1" d="M76.94,4.28,76.76,8c5.8,0,11.44.24,17-.09,3.62-.22,5.71.77,6.29,4.47a16.83,16.83,0,0,0,1,2.83c-8,1.58-15.08,4.9-19.54,12-1.77,2.81-2.74,6.14-4.28,9.73H132.8a19.65,19.65,0,0,0-4.58-11.3,26.94,26.94,0,0,0-20.09-10.33c-2.49-.15-3.49-1.06-4.24-3.22-.91-2.65-2.2-5.17-3.32-7.74Z"/><path class="cls-2" d="M140.27,51.56V40.88H70.66V51.56Z"/><text class="cls-3" transform="translate(12.3 225.35)">ORDY<tspan class="cls-4"><tspan x="-9.74" y="26">O</tspan><tspan class="cls-5" x="4.13" y="26">r</tspan><tspan x="9.93" y="26">de</tspan><tspan class="cls-6" x="31.99" y="26">r</tspan><tspan x="37.83" y="26" xml:space="preserve"> in g</tspan><tspan class="cls-5" x="72.98" y="26">r</tspan><tspan x="78.78" y="26">oup</tspan><tspan class="cls-7" x="111.76" y="26"> </tspan><tspan x="116" y="26">with style</tspan></tspan></text></svg>